<?xml version="1.0" encoding="utf-8"?>
<!-- Generator: Adobe Illustrator 25.0.0, SVG Export Plug-In . SVG Version: 6.00 Build 0)  -->
<svg version="1.1" id="Layer_1" xmlns="http://www.w3.org/2000/svg" xmlns:xlink="http://www.w3.org/1999/xlink" x="0px" y="0px"
	 viewBox="0 0 867.1 424.26" style="enable-background:new 0 0 867.1 424.26;" xml:space="preserve">
<style type="text/css">
	.st0{fill:#628587;}
	.st1{font-family:'GillSans-UltraBoldCondensed';}
	.st2{font-size:160px;}
	.st3{letter-spacing:16;}
	.st4{font-size:72px;}
	.st5{letter-spacing:7;}
</style>
<g>
	<g>
		<g>
			<path class="st0" d="M262.6,166.25c7.26-22.51,11.3-45.43,7.23-69.11c-2.18-12.68-6.97-24.13-17.31-32.57
				c-7.86-6.41-17.1-9.31-26.93-10.66c-1.68-0.23-2.41-0.92-3.06-2.39c-3.13-7.02-7.17-13.49-12.56-19
				C192.3,14.43,170.28,5.88,145.5,4.24c-30.18-2-55.18,9.26-75.63,31.15c-3.95,4.23-7.32,8.94-10.03,14.08
				c-0.32,0.6-0.93,1.37-0.39,1.99c0.29,0.33,1.17,0.29,1.74,0.19c13.19-2.29,26.12-0.52,38.88,2.73
				c17.65,4.49,33.79,13.59,51.81,16.99c-11.41,0.69-22.12-1.92-32.52-6.22c-17.28-7.16-34.92-12.68-54-10.2
				C46.61,57.38,32.11,66.46,23.9,83.82c-8.53,18.04-8.97,37.35-6.74,56.71c1.87,16.22,6.34,31.88,12.13,47.14
				c0.43,1.13,0.5,2.08,0.07,3.24c-4.94,13.48-5.95,27.57-5.98,41.73c-0.04,15.7,1.64,31.31,4.28,46.77
				c4.02,23.53,10.45,46.32,20.84,67.95c8.93,18.58,19.56,35.83,35.4,49.41c20.77,17.81,44.89,25.12,71.81,21.25
				c26.53-3.81,47.14-18.11,62.32-39.82c13.98-19.99,23.37-42.29,30.16-65.68c6.2-21.34,10.11-43.11,11.8-65.26
				c1.46-19.14,1.24-38.16-5.36-56.55c-0.37-1.03-0.16-1.93,0.22-2.96C257.51,180.61,260.27,173.5,262.6,166.25z M217.4,285.15
				c-7.95,31.09-20.43,60.21-38.41,86.84c-5.84,8.65-12.36,16.8-20.92,23.05c-11.92,8.7-23.18,8.69-34.98-0.13
				c-7.34-5.49-13.08-12.38-17.78-20.6c16.5,4.65,32.01,3.46,46.88-4.94c-1-1.74-2.15-0.87-3.15-0.77
				c-14.06,1.52-28.01,1.47-41.62-3.01c-6.94-2.29-12.51-6.35-16.86-13.35c5.85,2.16,10.97,3.95,16.26,5.16
				c18.16,4.14,35.8,2.94,52.65-5.5c1.74-0.87,3.26-2.16,4.92-3.18c0.73-0.44,1.06-0.91,0.61-1.69c-0.53-0.91-1.03-0.04-1.49,0.1
				c-23.31,7.15-46.31,6.39-68.91-2.85c-8.05-3.29-13.95-8.93-17.24-17.73c35.06,25.32,91.46,12.84,103.98-7.61
				c-0.18-0.07-0.43-0.26-0.53-0.2c-9.74,6.41-20.8,8.76-32.1,10.08c-16.91,1.97-33.61,0.71-49.77-4.83
				c-11.7-4.02-21.86-10.53-29.72-20.28c-0.41-0.51-0.96-1.01-0.8-2.11c1.77,1.05,3.39,2.06,5.05,3
				c13.92,7.82,29.07,11.29,44.81,12.71c12.83,1.15,25.57,0.96,38.07-2.5c11.76-3.25,22.49-8.55,31.6-16.83
				c0.81-0.74,1.79-1.42,2.26-3.05c-3.16,1.5-6,2.96-8.92,4.21c-8.52,3.63-17.54,5.28-26.67,6.15c-17.43,1.65-34.84,1.55-52.02-2.36
				c-11.86-2.7-22.95-7.3-32.41-15.19c-4.2-3.51-8.84-10.51-11.04-16.42c1.78,1.49,3.21,2.68,4.63,3.88
				c10.61,8.94,23.51,12.5,36.64,15.4c15.08,3.33,30.41,4.59,45.8,3.66c17.41-1.06,34.64-3.41,50.85-10.47
				c8.88-3.86,16.28-9.65,22.47-17.04c0.59-0.69,1.2-1.36,2.3-2.62C220.72,271.73,219.11,278.46,217.4,285.15z M239.94,199.98
				c-6.16,14.59-11.53,29.52-19.04,43.53c-7.62,14.21-17.53,25.95-33.14,31.81c-8.58,3.22-17.59,4.33-26.61,5.13
				c-12.34,1.1-24.71,1.68-37.1,0.72c-9.57-0.74-19.09-1.79-28.33-4.53c-15.69-4.64-25.51-15.66-32.31-29.93
				c-7.31-15.35-12.51-31.57-19.26-47.15c-5.63-12.96-10.37-26.2-13.75-39.94c-3.47-14.09-5.63-28.32-4.69-42.87
				c0.68-10.57,3.03-20.76,7.79-30.32c6.57-13.2,17.48-20.16,31.8-22.18c16.64-2.35,32.33,1.95,47.8,7.2
				c14.13,4.79,26.93,12.4,39.69,19.95c14.38,8.51,29.61,9.17,45.42,5.67c0.75-0.17,1.69-0.19,1.47-1.48
				c-0.27-1.57-1.45-0.87-2.15-0.82c-14.22,0.99-27-3.32-39.63-10.73c12.17-3.96,22.33-10.66,33.51-15.11
				c11.58-4.61,23.65-6.48,36.07-4.6c16.79,2.54,26.67,12.77,31.15,28.72c3.54,12.61,3.62,25.43,2.19,38.36
				C258.16,155.6,249.28,177.84,239.94,199.98z"/>
			<path class="st0" d="M111.49,210.01c-0.61,1.52-0.96,2.84-1.63,3.98c-0.98,1.65-1.87,3.65-4.32,3.38
				c-2.44-0.27-3.74-1.93-4.5-4.12c-1.91-5.54-0.93-10.82,1.75-15.79c7.02-13.05,22.11-18.39,36.08-12.74
				c1.89,0.76,3.36,0.75,5.22,0.04c14.49-5.51,30.4-0.04,36.8,12.65c2.16,4.29,3.49,8.79,2.37,13.7c-0.91,4-2.75,6.27-5.32,6.33
				c-2.5,0.06-4.47-2.18-5.46-6.2c-0.09-0.35-0.11-0.72-0.19-1.24c-3.88,4.91-6.11,4.89-8.7,0.14c-3.99,4.21-6.54,4.01-9.93-0.76
				c-4.94,5.51-7.47,5.43-12.28-0.35c-4.87,5.86-7.31,5.94-11.35,0.4c-4.66,4.84-6.86,5.03-9.86,0.73
				c-1.18,1.42-1.78,3.66-4.12,3.47C113.92,213.45,112.56,212.02,111.49,210.01z"/>
			<path class="st0" d="M207.15,155.47c-0.74-10.22-8.81-19.26-18.38-20.57c-11.14-1.52-21.46,4.38-24.76,14.56
				c-0.83,2.55-1.91,3.05-4.29,2.79c-12.03-1.33-24.08-1.76-36.09,0.05c-2.77,0.42-3.65-0.45-4.55-3.05
				c-3.56-10.32-14.02-16.09-25.2-14.3c-9.57,1.54-17.67,10.72-18.05,20.46c-0.44,11.36,7.63,21.32,18.69,23.05
				c11.21,1.75,22.25-5.24,25.09-16.22c0.6-2.34,1.72-2.88,3.73-3.15c6.14-0.83,12.29-1.47,18.4-1.21c6.2-0.17,12.26,0.2,18.28,1.2
				c1.93,0.32,2.92,0.84,3.47,3.02c2.96,11.75,16.19,19.17,27.84,15.87C201.02,175.21,207.87,165.47,207.15,155.47z M98.05,172.09
				c-8.45,0.02-15.38-6.85-15.39-15.26c-0.01-8.9,6.29-15.49,14.91-15.6c8.54-0.11,15.97,7.02,15.89,15.24
				C113.38,165.28,106.68,172.06,98.05,172.09z M185.1,172.05c-8.83-0.1-15.68-6.87-15.59-15.37c0.1-8.49,7.55-15.69,16.03-15.49
				c8.14,0.2,15.01,7.54,14.88,15.91C200.29,165.38,193.35,172.15,185.1,172.05z"/>
		</g>
	</g>
</g>
<g>
	<text transform="matrix(1 0 0 1 278.9719 234.8224)" class="st0 st1 st2 st3">Demut</text>
</g>
<g>
	<text transform="matrix(1 0 0 1 371.744 291.8484)" class="st0 st1 st4 st5">zahnartz</text>
</g>
</svg>
