<?xml version="1.0" encoding="UTF-8" standalone="no"?>
<!DOCTYPE svg PUBLIC "-//W3C//DTD SVG 1.1//EN" "http://www.w3.org/Graphics/SVG/1.1/DTD/svg11.dtd">
<svg width="100%" height="100%" viewBox="0 0 3613 1768" version="1.1" xmlns="http://www.w3.org/2000/svg" xmlns:xlink="http://www.w3.org/1999/xlink" xml:space="preserve" xmlns:serif="http://www.serif.com/" style="fill-rule:evenodd;clip-rule:evenodd;stroke-linejoin:round;stroke-miterlimit:2;">
    <g id="Page-1" serif:id="Page 1" transform="matrix(4.166667,0,0,4.166667,0,0)">
        <rect x="0" y="0" width="867.097" height="424.258" style="fill:none;"/>
        <g id="Layer-1" serif:id="Layer 1">
            <g transform="matrix(1,0,0,1,239.9358,224.1349)">
                <path d="M0,-24.153C-6.161,-9.559 -11.525,5.369 -19.041,19.379C-26.666,33.594 -36.566,45.328 -52.177,51.191C-60.76,54.415 -69.768,55.518 -78.784,56.324C-91.123,57.426 -103.497,58.008 -115.889,57.043C-125.454,56.298 -134.974,55.249 -144.214,52.514C-159.907,47.872 -169.727,36.857 -176.52,22.584C-183.829,7.229 -189.026,-8.988 -195.785,-24.564C-201.411,-37.528 -206.152,-50.764 -209.537,-64.5C-213.009,-78.594 -215.169,-92.824 -214.229,-107.365C-213.547,-117.932 -211.197,-128.126 -206.439,-137.687C-199.869,-150.889 -188.956,-157.842 -174.635,-159.864C-158,-162.212 -142.305,-157.917 -126.832,-152.669C-112.699,-147.875 -99.904,-140.267 -87.139,-132.716C-72.758,-124.211 -57.53,-123.542 -41.722,-127.045C-40.97,-127.211 -40.028,-127.234 -40.247,-128.523C-40.515,-130.097 -41.7,-129.391 -42.402,-129.342C-56.621,-128.35 -69.4,-132.666 -82.036,-140.076C-69.869,-144.038 -59.703,-150.731 -48.524,-155.184C-36.941,-159.798 -24.877,-161.663 -12.457,-159.787C4.333,-157.251 14.217,-147.013 18.697,-131.07C22.241,-118.456 22.318,-105.637 20.891,-92.707C18.223,-68.533 9.346,-46.29 0,-24.153M-22.539,61.012C-30.488,92.101 -42.969,121.221 -60.949,147.851C-66.789,156.502 -73.309,164.651 -81.869,170.901C-93.789,179.601 -105.049,179.592 -116.849,170.771C-124.189,165.281 -129.929,158.391 -134.629,150.172C-118.129,154.821 -102.619,153.632 -87.749,145.231C-88.749,143.491 -89.898,144.361 -90.899,144.462C-104.959,145.981 -118.909,145.931 -132.519,141.452C-139.459,139.162 -145.029,135.101 -149.379,128.101C-143.529,130.262 -138.409,132.052 -133.119,133.262C-114.959,137.401 -97.319,136.202 -80.469,127.762C-78.729,126.891 -77.209,125.601 -75.549,124.582C-74.818,124.141 -74.488,123.672 -74.938,122.891C-75.469,121.981 -75.969,122.851 -76.429,122.991C-99.739,130.141 -122.739,129.382 -145.339,120.141C-153.389,116.851 -159.289,111.212 -162.579,102.412C-127.519,127.731 -71.119,115.252 -58.599,94.802C-58.778,94.731 -59.028,94.542 -59.129,94.601C-68.869,101.012 -79.929,103.361 -91.229,104.681C-108.139,106.651 -124.839,105.391 -140.999,99.851C-152.699,95.832 -162.859,89.321 -170.719,79.571C-171.129,79.061 -171.679,78.561 -171.519,77.462C-169.749,78.512 -168.129,79.521 -166.469,80.462C-152.549,88.281 -137.399,91.752 -121.659,93.172C-108.829,94.321 -96.089,94.132 -83.589,90.672C-71.829,87.422 -61.099,82.122 -51.988,73.842C-51.179,73.101 -50.199,72.422 -49.729,70.792C-52.889,72.292 -55.729,73.752 -58.648,75.002C-67.169,78.632 -76.188,80.281 -85.318,81.151C-102.749,82.802 -120.159,82.702 -137.339,78.792C-149.199,76.092 -160.289,71.491 -169.749,63.601C-173.949,60.092 -178.589,53.092 -180.789,47.181C-179.009,48.672 -177.579,49.861 -176.159,51.061C-165.549,60.002 -152.649,63.561 -139.519,66.462C-124.439,69.792 -109.109,71.052 -93.719,70.122C-76.309,69.061 -59.079,66.712 -42.869,59.651C-33.988,55.792 -26.589,50.002 -20.398,42.611C-19.809,41.922 -19.199,41.252 -18.099,39.991C-19.219,47.592 -20.829,54.321 -22.539,61.012M22.669,-57.881C29.926,-80.395 33.966,-103.313 29.898,-126.992C27.72,-139.676 22.928,-151.119 12.587,-159.558C4.728,-165.972 -4.516,-168.871 -14.347,-170.216C-16.031,-170.447 -16.757,-171.141 -17.411,-172.61C-20.539,-179.63 -24.585,-186.101 -29.966,-191.613C-47.631,-209.71 -69.655,-218.252 -94.431,-219.897C-124.606,-221.901 -149.615,-210.636 -170.063,-188.746C-174.01,-184.521 -177.378,-179.802 -180.094,-174.665C-180.412,-174.062 -181.021,-173.293 -180.483,-172.679C-180.196,-172.35 -179.314,-172.387 -178.74,-172.487C-165.552,-174.782 -152.62,-173.01 -139.856,-169.762C-122.209,-165.271 -106.062,-156.169 -88.05,-152.775C-99.464,-152.084 -110.167,-154.691 -120.566,-158.999C-137.845,-166.157 -155.489,-171.676 -174.562,-169.195C-193.328,-166.755 -207.823,-157.675 -216.035,-140.314C-224.566,-122.277 -225.008,-102.967 -222.771,-83.605C-220.898,-67.39 -216.429,-51.73 -210.643,-36.467C-210.215,-35.338 -210.147,-34.383 -210.571,-33.229C-215.512,-19.749 -216.52,-5.654 -216.552,8.498C-216.586,24.199 -214.914,39.807 -212.273,55.269C-208.256,78.797 -201.826,101.594 -191.434,123.223C-182.506,141.806 -171.87,159.051 -156.033,172.63C-135.267,190.435 -111.142,197.748 -84.218,193.883C-57.689,190.073 -37.076,175.773 -21.896,154.061C-7.92,134.069 1.469,111.774 8.265,88.385C14.467,67.043 18.375,45.277 20.069,23.128C21.534,3.985 21.31,-15.028 14.705,-33.419C14.334,-34.453 14.547,-35.352 14.93,-36.383C17.578,-43.524 20.333,-50.635 22.669,-57.881" style="fill:rgb(249,249,249);fill-rule:nonzero;"/>
            </g>
            <g transform="matrix(1,0,0,1,111.4939,186.7032)">
                <path d="M0,23.309C-0.607,24.828 -0.96,26.151 -1.632,27.287C-2.607,28.936 -3.505,30.937 -5.95,30.67C-8.393,30.404 -9.69,28.743 -10.448,26.546C-12.358,21.006 -11.376,15.728 -8.701,10.758C-1.679,-2.287 13.413,-7.628 27.374,-1.982C29.265,-1.218 30.737,-1.237 32.594,-1.943C47.084,-7.457 62.998,-1.982 69.397,10.702C71.562,14.992 72.888,19.488 71.77,24.406C70.861,28.401 69.019,30.676 66.447,30.734C63.945,30.79 61.972,28.553 60.991,24.531C60.905,24.178 60.877,23.81 60.799,23.291C56.917,28.197 54.686,28.184 52.099,23.429C48.108,27.634 45.558,27.439 42.168,22.669C37.225,28.175 34.695,28.103 29.888,22.32C25.019,28.175 22.575,28.262 18.534,22.72C13.875,27.557 11.673,27.749 8.675,23.452C7.499,24.876 6.894,27.114 4.553,26.921C2.427,26.745 1.069,25.32 0,23.309" style="fill:rgb(249,249,249);fill-rule:nonzero;"/>
            </g>
            <g transform="matrix(1,0,0,1,185.096,142.3702)">
                <path d="M0,29.681C-8.826,29.576 -15.686,22.81 -15.587,14.306C-15.489,5.815 -8.035,-1.388 0.442,-1.182C8.583,-0.984 15.452,6.363 15.32,14.732C15.19,23.009 8.252,29.779 0,29.681M-87.041,29.716C-95.489,29.74 -102.422,22.868 -102.433,14.459C-102.445,5.561 -96.143,-1.03 -87.522,-1.136C-78.978,-1.241 -71.549,5.884 -71.631,14.106C-71.719,22.911 -78.413,29.692 -87.041,29.716M22.056,13.102C21.319,2.879 13.243,-6.16 3.68,-7.465C-7.465,-8.985 -17.777,-3.082 -21.084,7.098C-21.912,9.649 -22.989,10.148 -25.376,9.884C-37.403,8.554 -49.454,8.12 -61.468,9.93C-64.24,10.347 -65.117,9.481 -66.014,6.878C-69.572,-3.444 -80.035,-9.217 -91.209,-7.421C-100.778,-5.882 -108.88,3.302 -109.261,13.043C-109.705,24.407 -101.635,34.361 -90.574,36.092C-79.369,37.846 -68.327,30.849 -65.486,19.868C-64.881,17.53 -63.768,16.987 -61.752,16.715C-55.61,15.887 -49.462,15.242 -43.355,15.509C-37.154,15.339 -31.1,15.711 -25.07,16.707C-23.144,17.026 -22.152,17.544 -21.603,19.723C-18.642,31.472 -5.416,38.898 6.236,35.591C15.925,32.842 22.775,23.102 22.056,13.102" style="fill:rgb(249,249,249);fill-rule:nonzero;"/>
            </g>
            <g transform="matrix(1,0,0,1,12.499881,21.661375)">
                <text x="278.972px" y="234.822px" style="font-family:'BerlinSansFBDemi-Bold', 'Berlin Sans FB Demi', sans-serif;font-weight:700;font-size:160px;fill:rgb(249,249,249);">D<tspan x="409.038px 505.197px 660.888px 770.172px " y="234.822px 234.822px 234.822px 234.822px ">emut</tspan></text>
            </g>
            <g transform="matrix(1,0,0,1,17.1051,45.598465)">
                <text x="371.744px" y="291.849px" style="font-family:'BerlinSansFBDemi-Bold', 'Berlin Sans FB Demi', sans-serif;font-weight:700;font-size:72px;fill:rgb(249,249,249);">z<tspan x="412.634px 462.173px 510.2px 558.227px 607.765px 642.398px 683.288px " y="291.849px 291.849px 291.849px 291.849px 291.849px 291.849px 291.849px ">ahnarzt</tspan></text>
            </g>
            <g transform="matrix(1,0,0,1,129.648995,-157.927577)">
                <g transform="matrix(72,0,0,72,485.129997,291.8488)">
                </g>
                <text x="371.744px" y="291.849px" style="font-family:'BerlinSansFBDemi-Bold', 'Berlin Sans FB Demi', sans-serif;font-weight:700;font-size:72px;fill:rgb(249,249,249);">D<tspan x="430.283px 464.915px " y="291.849px 291.849px ">r.</tspan></text>
            </g>
        </g>
    </g>
</svg>
